<svg xmlns="http://www.w3.org/2000/svg" width="720" height="450" viewBox="0 0 720 450" role="img" aria-label="Placeholder da tela Designação">
  <rect width="720" height="450" fill="#F7FBFA"/>
  <rect x="0" y="0" width="720" height="44" fill="#FFFFFF" stroke="#D5E0DE"/>
  <rect x="24" y="14" width="72" height="16" rx="4" fill="#1A6B66"/>
  <rect x="106" y="16" width="58" height="12" rx="3" fill="#C9D6D3"/>
  <rect x="174" y="16" width="58" height="12" rx="3" fill="#C9D6D3"/>
  <rect x="242" y="16" width="58" height="12" rx="3" fill="#C9D6D3"/>
  <text x="24" y="84" fill="#102826" font-family="Georgia, serif" font-size="22" font-weight="600">Designação</text>
  <rect x="24" y="104" width="672" height="1" fill="#D5E0DE"/>
  <rect x="24" y="124" width="420" height="280" rx="10" fill="#FFFFFF" stroke="#D5E0DE"/>
  <rect x="40" y="144" width="180" height="14" rx="3" fill="#1A6B66" opacity="0.85"/>
  <rect x="40" y="176" width="388" height="36" rx="6" fill="#E4F0EE"/>
  <rect x="52" y="188" width="120" height="10" rx="2" fill="#5B6E6B"/>
  <rect x="40" y="224" width="388" height="36" rx="6" fill="#F4F7F6"/>
  <rect x="52" y="236" width="150" height="10" rx="2" fill="#5B6E6B"/>
  <rect x="40" y="272" width="388" height="36" rx="6" fill="#E4F0EE"/>
  <rect x="52" y="284" width="130" height="10" rx="2" fill="#5B6E6B"/>
  <rect x="40" y="320" width="388" height="36" rx="6" fill="#F4F7F6"/>
  <rect x="52" y="332" width="160" height="10" rx="2" fill="#5B6E6B"/>
  <rect x="460" y="124" width="236" height="280" rx="10" fill="#FFFFFF" stroke="#D5E0DE"/>
  <rect x="480" y="148" width="120" height="12" rx="3" fill="#102826"/>
  <rect x="480" y="180" width="196" height="44" rx="8" fill="#1A6B66"/>
  <rect x="480" y="240" width="196" height="44" rx="8" fill="#E4F0EE" stroke="#D5E0DE"/>
  <rect x="480" y="300" width="196" height="44" rx="8" fill="#E4F0EE" stroke="#D5E0DE"/>
  <text x="24" y="430" fill="#5B6E6B" font-family="system-ui, sans-serif" font-size="13">Placeholder — captura real em breve</text>
</svg>
